<svg version="1.0" xmlns="http://www.w3.org/2000/svg" width="864px" height="908px" viewBox="0 0 864 908" preserveAspectRatio="xMidYMid meet">
    <g transform="translate(0,908) scale(0.1,-0.1)" fill="#000000" stroke="none">
        <path class="letra_M" d="M6399 8569 c-173 -182 -342 -361 -376 -398 -34 -36 -82 -86 -106 -111 -68 -72 -549 -579 -572 -604 -76 -83 -393 -418 -650 -686 -60 -63 -173
        -183 -250 -265 -77 -82 -156 -166 -175 -186 -19 -19 -102 -107 -185 -195 -251 -266 -308 -324 -319 -324 -6 0 -703 692 -1548 1537 -845 845 -1540 1534 -1543
        1531 -4 -3 -3 -1499 2 -3324 l8 -3318 508 509 509 508 -4 121 c-1 67 -2 775 0 1574 2 1163 5 1452 15 1452 11 0 199 -178 617 -584 86 -83 247 -239 359 -346
        111 -107 233 -224 270 -260 37 -36 172 -166 301 -290 128 -124 258 -250 289 -280 141 -138 262 -250 270 -250 5 0 69 64 142 142 74 78 143 151 155 162 11
        12 49 53 84 91 35 39 111 120 169 180 58 61 201 212 316 335 116 124 258 274 316 335 58 60 132 139 165 175 32 36 72 79 89 95 27 27 138 145 386 410 132
        142 573 610 673 715 50 53 147 156 216 230 69 74 157 169 197 210 l71 75 -8 130 c-5 72 -14 283 -20 469 -6 186 -13 373 -14 415 -2 42 -4 138 -5 214 -1
        127 -2 137 -20 137 -11 0 -138 -126 -332 -331z"/>
        
        <path class="letra_C" d="M6214 6406 c-164 -168 -300 -309 -301 -313 -2 -4 50 -34 115 -65 327 -158 626 -413 833 -709 35 -50 73 -103 85 -117 l20 -25 110 58 c60 32 127 68
        149 80 48 27 156 85 245 133 36 19 90 48 120 65 30 17 77 42 103 55 27 14 51 30 53 37 7 17 -37 80 -175 253 -222 279 -486 517 -786 709 -131 83 -239 143 -259 143 -7 0 -148 -137 -312 -304z"/>
        
        <path class="letra_C" d="M2800 3748 c-52 -57 -143 -152 -201 -213 -59 -60 -140 -146 -180 -190 -66 -70 -135 -143 -332 -350 -31 -33 -57 -68 -57 -78 0 -28 35 -152 60
        -212 5 -11 14 -38 20 -60 6 -22 15 -49 20 -60 5 -11 27 -66 49 -123 232 -587 688 -1141 1236 -1504 169 -111 435 -248 600 -308 236 -86 388 -130 535 -156
        25 -4 47 -8 50 -9 21 -5 159 -26 223 -35 119 -15 523 -12 652 5 280 38 525 98 745 182 99 38 102 40 145 59 356 155 680 373 957 642 195 190 329 351 469 567
        110 170 108 168 116 185 4 8 19 37 35 63 15 26 28 52 28 56 0 5 -15 14 -32 21 -54 20 -72 27 -98 38 -14 5 -92 35 -175 67 -82 31 -165 63 -183 71 -18 8 -37
        14 -42 14 -6 0 -29 8 -53 19 -23 10 -67 28 -97 39 -189 70 -256 96 -265 103 -5 4 -21 9 -34 11 -21 3 -35 -14 -111 -125 -120 -177 -239 -317 -372 -437
        -181 -163 -433 -322 -626 -396 -37 -14 -76 -30 -87 -34 -210 -90 -603 -139 -895 -111 -207 20 -477 83 -562 131 -10 6 -23 10 -30 10 -23 0 -263 127 -354
        188 -375 249 -657 587 -852 1022 -16 36 -39 94 -51 130 -12 36 -25 72 -28 80 -14 34 -54 190 -68 265 -9 44 -20 100 -25 125 -8 40 -26 246 -33 368 l-2 44 -95 -104z"/>
    </g>
</svg>
