<svg version="1.0" xmlns="http://www.w3.org/2000/svg" width="24px" height="24px" viewBox="0 0 512.000000 512.000000" preserveAspectRatio="xMidYMid meet">

    <g transform="translate(0,512) scale(0.1,-0.1)" fill="#727272" stroke="none">
        <path d="M2419 5097 c-135 -57 -224 -164 -249 -299 -7 -36 -10 -414 -8 -1094 l3 -1039 28 -59 c73 -157 206 -246 367 -246 161 0 294 89 367 246 l28 59 3
        1039 c2 686 -1 1058 -8 1095 -22 121 -112 235 -227 289 -48 22 -75 27 -153 30 -81 2 -103 -1 -151 -21z"/>
        
        <path d="M1250 4313 c-82 -29 -228 -141 -375 -288 -357 -357 -588 -825 -661 -1340 -24 -168 -24 -489 0 -650 74 -492 296 -951 632 -1304 186 -195 377 -337
        628 -467 362 -187 680 -264 1086 -264 406 0 724 77 1086 264 407 210 715 500 945 887 228 385 333 767 333 1209 -1 395 -70 699 -239 1045 -169 348 -439 668
        -725 862 -75 50 -139 66 -244 61 -136 -8 -217 -52 -298 -163 -62 -84 -82 -170 -66 -285 13 -104 54 -177 138 -249 225 -194 377 -376 475 -571 352 -701 119
        -1565 -540 -2002 -262 -173 -552 -261 -865 -261 -193 0 -360 29 -525 90 -584 217 -972 716 -1036 1330 -36 356 55 713 262 1023 63 95 230 271 369 391 84 72
        125 145 138 249 6 44 7 96 2 126 -22 137 -132 265 -263 308 -61 20 -197 20 -257 -1z"/>
    </g>
</svg>
