<?xml version="1.0" standalone="no"?>
<!DOCTYPE svg PUBLIC "-//W3C//DTD SVG 20010904//EN"
 "http://www.w3.org/TR/2001/REC-SVG-20010904/DTD/svg10.dtd">
<svg version="1.0" xmlns="http://www.w3.org/2000/svg"
 width="512.000000pt" height="512.000000pt" viewBox="0 0 512.000000 512.000000"
 preserveAspectRatio="xMidYMid meet">
<metadata>
Created by potrace 1.16, written by Peter Selinger 2001-2019
</metadata>
<g transform="translate(0.000000,512.000000) scale(0.100000,-0.100000)"
fill="#000000" stroke="none">
<path d="M194 4459 c-73 -28 -128 -79 -165 -154 -30 -61 -31 -69 -27 -152 6
-130 52 -205 160 -264 l63 -34 2335 0 2335 0 47 24 c60 29 121 88 149 143 17
32 24 66 27 131 4 83 3 91 -27 152 -38 76 -93 127 -168 155 -53 20 -75 20
-2366 19 -2269 0 -2313 0 -2363 -20z"/>
<path d="M251 2869 c-104 -20 -203 -103 -235 -196 -21 -61 -20 -167 1 -229 23
-69 110 -155 183 -180 54 -18 117 -19 2360 -19 2243 0 2306 1 2360 19 73 25
160 111 183 180 22 63 22 169 0 232 -22 65 -110 153 -178 180 -49 19 -105 19
-2340 20 -1259 1 -2310 -2 -2334 -7z"/>
<path d="M210 1253 c-93 -32 -164 -102 -196 -190 -7 -21 -13 -72 -14 -114 0
-65 4 -84 31 -137 36 -73 92 -124 166 -152 53 -20 75 -20 2363 -20 2288 0
2310 0 2363 20 75 28 130 79 168 155 30 61 31 69 27 152 -3 65 -10 99 -27 131
-29 57 -86 113 -146 142 l-50 25 -2320 2 c-2090 2 -2324 1 -2365 -14z"/>
</g>
</svg>
