<svg version="1.0" xmlns="http://www.w3.org/2000/svg" width="64px" height="64px" viewBox="0 0 512.000000 512.000000" preserveAspectRatio="xMidYMid meet">
<g transform="translate(0.000000,512.000000) scale(0.100000,-0.100000)"
fill="#000000" stroke="none">
<path d="M1164 4724 c-9 -22 -28 -82 -42 -134 -23 -84 -26 -114 -26 -265 0
-154 3 -178 26 -252 l25 -82 -23 -22 c-76 -71 -195 -291 -233 -429 -44 -163
-52 -391 -20 -615 89 -635 465 -984 1176 -1091 l112 -17 -35 -41 c-52 -60
-113 -191 -126 -268 l-12 -67 -55 -20 c-92 -34 -181 -51 -270 -51 -211 0 -365
92 -504 302 -124 187 -297 298 -465 298 -29 0 -68 -7 -87 -14 -68 -29 -39 -87
84 -170 130 -88 226 -213 307 -397 51 -117 91 -176 174 -253 66 -61 188 -126
285 -152 86 -23 326 -30 438 -12 l87 15 0 -256 c0 -183 -4 -263 -13 -280 -19
-38 -60 -62 -118 -71 -73 -10 365 -12 1141 -3 546 6 617 8 563 20 -77 15 -108
35 -122 75 -7 20 -11 188 -11 490 0 381 -3 472 -16 536 -21 103 -54 180 -108
256 -25 35 -42 66 -39 70 4 3 19 6 34 6 60 0 305 52 417 89 205 67 344 146
471 266 102 96 164 181 227 310 105 215 138 386 138 705 0 212 -1 231 -26 323
-43 155 -121 309 -220 428 l-38 47 22 78 c18 67 22 105 21 249 0 150 -3 181
-25 265 -14 52 -33 112 -41 133 l-16 37 -63 0 c-71 0 -163 -18 -258 -50 -89
-30 -288 -127 -390 -192 l-85 -53 -100 22 c-258 58 -545 81 -787 64 -173 -12
-366 -40 -485 -70 l-72 -19 -78 50 c-116 74 -346 183 -448 213 -55 17 -126 29
-182 32 l-93 6 -16 -39z"/>
</g>
</svg>
