<svg version="1.0" xmlns="http://www.w3.org/2000/svg" width="512.000000pt" height="512.000000pt" viewBox="0 0 512.000000 512.000000" preserveAspectRatio="xMidYMid meet">
    <g transform="translate(0.000000,512.000000) scale(0.100000,-0.100000)" fill="rgb(7, 139, 153)" stroke="none">
        
        <path d="M2305 5113 c-671 -72 -1279 -393 -1707 -903 -301 -358 -488 -764
        -571 -1240 -19 -109 -21 -162 -21 -410 0 -248 2 -301 21 -410 94 -540 320
        -987 693 -1374 383 -398 866 -650 1430 -749 109 -19 162 -21 410 -21 313 0
        407 10 653 73 881 228 1600 947 1828 1828 63 246 73 340 73 653 0 248 -2 301
        -21 410 -99 564 -352 1047 -749 1430 -386 372 -837 600 -1368 691 -97 17 -172
        22 -376 24 -140 2 -273 1 -295 -2z m565 -418 c486 -78 869 -273 1210 -615 298
        -297 494 -648 584 -1040 70 -309 70 -651 0 -960 -121 -532 -453 -1006 -931
        -1328 -184 -124 -463 -243 -693 -296 -309 -70 -651 -70 -960 0 -532 121 -1006
        453 -1328 931 -124 184 -243 463 -296 693 -70 309 -70 651 0 960 90 392 286
        743 584 1040 377 378 808 578 1365 634 79 8 372 -4 465 -19z"/>

        <path d="M2475 3321 c-56 -27 -1058 -1032 -1080 -1083 -38 -93 -5 -200 78
        -252 39 -24 57 -29 106 -28 34 0 74 8 93 17 18 10 225 209 460 443 l427 425
        438 -433 c270 -266 451 -438 473 -447 72 -31 184 -10 231 43 46 53 64 153 38
        221 -15 42 -1045 1071 -1094 1094 -51 24 -119 24 -170 0z"/>
    </g>
</svg>
