<svg version="1.0" xmlns="http://www.w3.org/2000/svg" width="64.000000pt" height="64.000000pt" viewBox="0 0 64.000000 64.000000" preserveAspectRatio="xMidYMid meet">
    <g transform="translate(0.000000,64.000000) scale(0.100000,-0.100000)" fill="#ffffff" stroke="none">
        <path d="M4 546 c-3 -8 -4 -25 -2 -38 l3 -23 315 0 315 0 0 35 0 35 -313 3 c-265 2 -313 0 -318 -12z"/>
        <path d="M4 346 c-3 -8 -4 -25 -2 -38 l3 -23 315 0 315 0 0 35 0 35 -313 3 c-265 2 -313 0 -318 -12z"/>
        <path d="M4 146 c-3 -8 -4 -25 -2 -38 l3 -23 315 0 315 0 0 35 0 35 -313 3 c-265 2 -313 0 -318 -12z"/>
    </g>
</svg>