<?xml version="1.0" standalone="no"?>
<!DOCTYPE svg PUBLIC "-//W3C//DTD SVG 20010904//EN"
 "http://www.w3.org/TR/2001/REC-SVG-20010904/DTD/svg10.dtd">
<svg version="1.0" xmlns="http://www.w3.org/2000/svg"
 width="512.000000pt" height="512.000000pt" viewBox="0 0 512.000000 512.000000"
 preserveAspectRatio="xMidYMid meet">
<metadata>
Created by potrace 1.16, written by Peter Selinger 2001-2019
</metadata>
<g transform="translate(0.000000,512.000000) scale(0.100000,-0.100000)"
fill="#000000" stroke="none">
<path d="M3363 5092 c-45 -15 -107 -45 -138 -66 -115 -80 -209 -215 -239 -343
l-12 -57 -87 -13 c-337 -48 -645 -274 -796 -584 -32 -65 -40 -74 -57 -68 -10
4 -442 8 -959 8 l-941 1 -44 -22 c-25 -13 -55 -38 -67 -57 l-23 -34 0 -1459
c0 -1616 -5 -1490 66 -1545 32 -24 47 -28 130 -31 52 -3 94 -7 94 -10 0 -3
-52 -179 -115 -391 -64 -212 -118 -394 -121 -404 -5 -16 10 -17 253 -15 l257
3 122 405 121 405 256 3 255 2 4 -92 c5 -109 30 -175 94 -254 37 -45 48 -73
104 -262 l64 -212 257 0 c202 0 257 3 254 13 -2 6 -23 75 -46 152 -23 77 -44
146 -46 153 -4 9 63 12 316 12 l321 0 0 -165 0 -165 706 0 706 0 -4 119 -4
118 88 7 c100 7 192 34 259 77 60 38 161 143 188 196 66 131 66 283 0 415 -37
74 -73 113 -165 184 -81 62 -114 111 -114 166 1 65 30 105 155 209 150 126
205 190 260 304 74 152 75 154 75 726 l0 506 43 19 c64 28 187 156 226 235 49
99 61 159 61 301 0 240 -53 452 -171 687 l-68 134 19 27 c40 56 55 112 54 200
0 102 -24 161 -94 230 -69 70 -128 94 -230 94 -88 1 -144 -14 -200 -54 l-27
-19 -134 68 c-237 119 -447 171 -692 171 -118 0 -141 -3 -214 -28z m382 -157
c186 -28 341 -83 508 -179 69 -40 84 -52 65 -54 -402 -44 -735 -148 -1043
-326 -60 -35 -111 -63 -112 -62 -1 1 -7 54 -13 117 -18 185 13 293 115 395
115 115 244 144 480 109z m961 -176 c47 -28 74 -77 74 -132 0 -25 -2 -52 -5
-59 -4 -10 -41 20 -113 91 -61 61 -103 109 -97 113 21 16 108 8 141 -13z
m-171 -316 c-20 -304 -71 -537 -171 -785 -66 -166 -220 -448 -244 -448 -4 0
-51 17 -104 39 -339 136 -631 428 -767 767 -22 53 -39 100 -39 104 0 11 113
82 234 145 309 164 692 263 1049 274 l49 1 -7 -97z m-1561 -25 c34 -253 78
-413 156 -568 55 -110 133 -229 205 -314 l57 -68 -244 4 -244 3 -66 33 c-80
39 -139 102 -168 178 -16 43 -20 79 -20 169 l0 115 -90 0 -90 0 1 -102 c0 -57
4 -121 8 -143 7 -37 4 -43 -36 -88 -23 -27 -56 -76 -73 -110 -58 -121 -60
-139 -60 -625 0 -479 4 -522 56 -661 39 -101 39 -101 18 -101 -57 -1 -158 -74
-206 -149 l-28 -45 0 821 c0 528 4 850 11 900 14 103 60 239 112 332 49 87
175 224 261 286 103 73 216 122 346 151 85 19 89 18 94 -18z m1833 -260 c90
-181 136 -370 137 -568 1 -109 -2 -132 -22 -183 -44 -109 -132 -195 -246 -241
-42 -16 -71 -20 -166 -19 -63 1 -133 6 -156 10 l-41 8 67 118 c114 199 205
431 260 662 30 123 60 306 60 366 l0 34 32 -50 c17 -27 51 -89 75 -137z
m-2827 -1338 c0 -533 -2 -970 -5 -970 -2 0 -36 21 -75 46 -104 67 -166 86
-280 86 -103 0 -173 -18 -246 -65 l-39 -24 38 76 c154 312 156 690 6 1011 -40
85 -454 720 -470 720 -5 0 -55 -69 -112 -154 l-102 -154 -70 69 c-39 38 -72
69 -75 69 -3 0 -32 -27 -65 -60 l-59 -60 83 -84 84 -85 -43 -68 c-24 -37 -45
-70 -47 -72 -2 -3 -28 20 -58 49 l-55 55 -62 -63 -63 -62 74 -74 74 -75 -26
-78 c-47 -144 -60 -241 -54 -418 4 -130 10 -177 31 -252 46 -164 106 -288 203
-415 50 -65 173 -188 220 -221 l33 -22 0 -97 0 -98 -245 0 -245 0 0 -90 0 -90
485 0 484 0 51 -75 51 -75 -616 0 -615 0 0 1395 0 1395 905 0 905 0 0 -970z
m760 535 c100 -51 138 -55 498 -55 l334 0 96 -64 c53 -36 109 -70 125 -77 15
-7 27 -15 27 -18 0 -3 -20 -14 -45 -25 -54 -22 -117 -90 -133 -144 -7 -22 -12
-69 -12 -106 l0 -66 84 0 84 0 4 62 c4 51 9 65 32 85 36 31 61 29 97 -6 25
-26 29 -37 29 -85 l0 -56 85 0 85 0 0 75 c0 45 -6 90 -15 112 -8 20 -14 38
-12 39 2 2 19 -1 38 -6 19 -4 60 -14 92 -20 l59 -12 -5 -276 c-4 -305 -9 -336
-72 -467 -91 -191 -271 -341 -480 -400 -87 -25 -505 -33 -625 -12 -156 27
-311 105 -369 184 -17 24 -47 53 -66 65 -45 29 -115 139 -148 234 -43 121 -49
197 -45 629 4 429 4 433 59 522 l21 33 64 -60 c36 -33 87 -71 114 -85z m-1698
-162 c218 -329 269 -464 270 -713 0 -113 -4 -151 -26 -235 -42 -165 -152 -363
-255 -459 l-31 -30 0 447 0 447 -90 0 -90 0 0 -447 0 -447 -36 35 c-171 163
-285 443 -284 697 1 68 18 180 40 261 l12 44 66 -66 67 -67 63 62 62 63 -91
91 -91 91 47 73 47 73 64 -64 64 -63 60 59 c33 33 60 64 60 69 0 6 -32 43 -72
83 l-71 72 39 60 c21 34 40 61 42 61 1 0 61 -89 134 -197z m3578 -670 c0 -496
-4 -531 -62 -650 -37 -76 -127 -173 -274 -295 -71 -59 -98 -89 -118 -131 -35
-70 -46 -146 -35 -221 17 -104 62 -170 177 -255 105 -78 142 -142 142 -250 0
-75 -33 -143 -99 -204 -75 -70 -126 -90 -242 -95 l-96 -4 -32 100 c-38 122
-110 269 -185 377 l-55 80 80 81 c51 53 88 101 105 138 70 152 51 327 -50 459
-21 27 -30 47 -23 47 31 0 198 92 267 147 126 100 214 218 277 373 54 130 63
200 63 490 l0 260 80 0 80 0 0 -447z m-2070 -568 c14 -7 33 -22 43 -33 42 -47
46 -81 47 -438 l0 -342 -274 -68 -274 -68 -42 38 c-51 46 -144 91 -219 107
-75 15 -185 7 -243 -18 l-46 -21 -91 136 c-109 165 -121 193 -121 274 0 193
200 336 379 273 23 -8 79 -39 125 -68 105 -69 141 -81 227 -75 115 9 171 53
242 193 19 39 44 78 55 88 49 45 130 54 192 22z m-1387 -337 c-17 -72 -12
-180 11 -246 l15 -42 -94 0 -95 0 0 98 0 98 48 36 c26 20 65 55 87 77 21 23
40 41 41 41 1 0 -5 -28 -13 -62z m2477 2 c97 -49 150 -133 150 -234 0 -97 -27
-141 -184 -296 l-136 -135 -185 185 -185 185 128 128 c70 70 142 137 160 149
81 50 175 57 252 18z m-510 -13 c0 -1 -70 -72 -155 -157 -150 -149 -155 -153
-140 -110 38 108 113 191 218 241 57 26 77 34 77 26z m28 -600 l182 -183 -127
-126 c-72 -70 -148 -136 -173 -148 -96 -49 -107 -50 -741 -50 -674 0 -658 -2
-735 76 -51 50 -80 133 -70 196 19 118 122 211 236 212 91 0 153 -27 234 -105
l72 -68 364 91 365 90 100 99 c55 55 102 99 105 99 3 0 87 -82 188 -183z m513
-244 c61 -95 102 -179 140 -291 30 -89 59 -223 59 -273 l0 -29 -530 0 -530 0
0 80 0 80 68 0 c81 0 154 19 242 61 54 27 99 66 275 240 116 115 213 209 218
209 4 0 30 -35 58 -77z m-3051 50 c0 -6 -78 -269 -166 -561 l-25 -82 -70 0
c-41 0 -69 4 -69 11 0 8 167 575 185 627 5 13 145 18 145 5z m1215 -545 c9
-35 20 -71 22 -81 5 -16 -1 -18 -67 -15 l-73 3 -24 75 c-12 41 -23 76 -23 78
0 1 33 2 73 2 l74 0 18 -62z"/>
<path d="M2795 3125 c-50 -18 -131 -102 -145 -153 -5 -20 -10 -67 -10 -104 l0
-68 85 0 85 0 0 56 c0 48 4 59 29 85 16 16 39 29 51 29 12 0 35 -13 51 -29 25
-26 29 -37 29 -85 l0 -56 85 0 85 0 0 78 c0 54 -6 89 -19 117 -23 50 -84 109
-133 130 -46 19 -139 19 -193 0z"/>
<path d="M3622 2441 c-7 -21 -22 -51 -34 -66 -38 -48 -70 -55 -273 -55 l-185
0 0 -90 0 -90 183 0 c199 0 267 11 336 54 81 52 151 167 151 251 l0 35 -83 0
-84 0 -11 -39z"/>
</g>
</svg>
