
<svg version="1.0" xmlns="http://www.w3.org/2000/svg" width="240.000000pt" height="240.000000pt" viewBox="0 0 240.000000 240.000000" preserveAspectRatio="xMidYMid meet">
    <g transform="translate(0.000000,240.000000) scale(0.100000,-0.100000)" fill="#ffffff" stroke="none">
        <path d="M1170 1983 c-22 -9 -862 -661 -882 -685 -45 -51 -3 -138 65 -138 39 0 30 -6 512 369 216 168 318 241 335 241 17 0 119 -73 335 -241 482 -375 473
        -369 512 -369 68 0 110 87 66 138 -10 11 -89 75 -175 141 l-157 122 -3 152 -3 152 -110 0 -110 0 -5 -61 -5 -61 -152 118 c-145 114 -187 137 -223 122z"/>

        <path d="M855 1414 c-181 -140 -336 -262 -343 -271 -17 -24 -18 -703 0 -721 9 -9 79 -12 255 -12 232 0 243 1 253 20 7 13 10 106 10 256 -1 130 3 241 8 246
        5 5 80 7 168 6 l159 -3 5 -250 c3 -137 9 -256 13 -262 11 -18 487 -19 505 -1 18 18 17 697 0 721 -22 28 -672 527 -688 527 -8 0 -163 -115 -345 -256z"/>
    </g>
</svg>
