<?xml version="1.0" standalone="no"?>
<!DOCTYPE svg PUBLIC "-//W3C//DTD SVG 20010904//EN"
 "http://www.w3.org/TR/2001/REC-SVG-20010904/DTD/svg10.dtd">
<svg version="1.0" xmlns="http://www.w3.org/2000/svg"
 width="738.000000pt" height="145.000000pt" viewBox="0 0 738.000000 145.000000"
 preserveAspectRatio="xMidYMid meet">
<metadata>
Created by potrace 1.16, written by Peter Selinger 2001-2019
</metadata>
<g transform="translate(0.000000,145.000000) scale(0.100000,-0.100000)"
fill="#000000" stroke="none">
<path d="M2950 1227 c-145 -34 -229 -128 -230 -256 0 -163 93 -248 350 -316
156 -42 194 -67 194 -129 0 -73 -73 -125 -173 -126 -113 0 -190 49 -213 136
-11 40 -15 44 -38 40 -14 -3 -56 -8 -93 -11 l-68 -7 7 -36 c20 -118 113 -233
216 -269 81 -28 293 -25 369 5 72 29 127 77 164 143 58 105 32 254 -57 335
-51 46 -92 63 -248 109 -69 20 -145 46 -170 58 -122 62 -41 177 115 165 85 -7
119 -28 147 -88 l23 -50 51 0 c28 0 72 3 98 6 l48 7 -7 36 c-20 109 -89 192
-190 230 -73 27 -217 36 -295 18z"/>
<path d="M210 735 l0 -485 100 0 100 0 0 205 0 205 23 0 c20 0 22 -4 19 -41
-5 -52 10 -69 38 -44 24 22 25 42 3 67 -16 17 -10 18 150 18 l167 0 0 80 0 80
-200 0 -200 0 0 120 0 120 230 0 230 0 0 80 0 80 -330 0 -330 0 0 -485z"/>
<path d="M1390 953 c0 -466 15 -551 113 -638 73 -67 154 -89 300 -83 176 8
279 62 328 173 35 80 47 324 32 663 l-6 152 -93 0 -93 0 -3 -357 c-3 -337 -4
-360 -23 -392 -33 -56 -67 -75 -143 -79 -113 -6 -187 47 -203 145 -4 26 -8
191 -8 366 l-1 317 -100 0 -100 0 0 -267z"/>
<path d="M3980 735 l0 -485 100 0 100 0 0 485 0 485 -100 0 -100 0 0 -485z"/>
<path d="M6553 1053 c46 -90 283 -463 285 -451 6 32 -14 75 -103 222 -87 143
-156 236 -176 236 -6 0 -8 -3 -6 -7z"/>
<path d="M7026 1014 c-3 -26 -6 -208 -6 -405 l0 -358 -67 -3 -68 -3 51 -52
c48 -51 53 -53 103 -53 43 0 56 4 76 26 13 14 27 44 30 67 3 23 5 207 3 409
l-3 366 -24 26 c-16 17 -35 26 -56 26 -31 0 -33 -2 -39 -46z"/>
<path d="M6440 562 c0 -305 0 -312 -20 -312 -24 0 -26 -20 -5 -59 23 -45 75
-55 116 -22 22 18 24 27 32 197 5 123 13 188 23 210 15 31 15 33 -52 145 -37
63 -73 123 -81 134 -11 16 -13 -28 -13 -293z"/>
</g>
</svg>
